<svg width="212" height="48" viewBox="0 0 212 48" xmlns="http://www.w3.org/2000/svg">
    <g fill="none" fill-rule="evenodd">
        <text font-family="SourceSansPro-Bold, Source Sans Pro" font-size="24" font-weight="bold" letter-spacing=".09" fill="#221BAA">
                        <tspan x="65" y="31">Animal House</tspan>
                    </text>
        <path d="M32.953 18.4c-2.25 0-4.39.705-6.156 2.008a10.318 10.318 0 0 0-6.155-2.008c-2.737 0-5.31 1.043-7.246 2.936a9.884 9.884 0 0 0 0 14.178l12.311 12.044c.302.295.696.442 1.09.442.395 0 .79-.147 1.09-.442l12.311-12.044c1.936-1.894 3.002-4.411 3.002-7.09 0-2.677-1.066-5.194-3.001-7.087-1.936-1.894-4.509-2.937-7.246-2.937zM19.2 16.8c1.768 0 3.469-.959 4.667-2.63 1.117-1.56 1.733-3.61 1.733-5.77 0-2.16-.616-4.21-1.733-5.77C22.669.96 20.967 0 19.2 0s-3.468.959-4.666 2.63C13.416 4.19 12.8 6.24 12.8 8.4c0 2.16.616 4.21 1.734 5.77 1.198 1.671 2.899 2.63 4.666 2.63z" fill="#FF5B5B" fill-rule="nonzero"/>
        <path d="M33.6 16.8c1.768 0 3.468-.959 4.667-2.63C39.384 12.61 40 10.56 40 8.4c0-2.16-.616-4.21-1.733-5.77C37.068.96 35.367 0 33.6 0c-1.768 0-3.469.959-4.667 2.63C27.816 4.19 27.2 6.24 27.2 8.4c0 2.16.616 4.21 1.733 5.77 1.198 1.671 2.9 2.63 4.667 2.63zM51.302 9.351C50.252 7.984 48.757 7.2 47.2 7.2c-1.557 0-3.052.784-4.101 2.15-.967 1.26-1.499 2.911-1.499 4.65 0 1.739.532 3.39 1.499 4.649 1.05 1.367 2.544 2.151 4.101 2.151s3.052-.784 4.102-2.151c.966-1.26 1.498-2.91 1.498-4.649 0-1.739-.532-3.39-1.498-4.649z" fill="#221BAA" fill-rule="nonzero"/>
        <path d="M9.701 9.35C8.652 7.985 7.157 7.2 5.6 7.2s-3.052.784-4.101 2.151C.532 10.611 0 12.261 0 14c0 1.739.532 3.39 1.499 4.649 1.049 1.367 2.544 2.151 4.1 2.151 1.558 0 3.053-.784 4.102-2.151.966-1.26 1.499-2.91 1.499-4.649 0-1.739-.533-3.39-1.499-4.65z" fill="#FF5B5B" fill-rule="nonzero"/>
        <path d="M40.106 21.337c-1.995-1.894-4.647-2.937-7.468-2.937-2.275 0-4.439.68-6.238 1.935V48a1.62 1.62 0 0 0 1.016-.437l12.69-12.047c1.995-1.893 3.094-4.41 3.094-7.09 0-2.677-1.099-5.195-3.094-7.089z" fill="#221BAA" fill-rule="nonzero"/>
    </g>
</svg>
